<svg xmlns="http://www.w3.org/2000/svg" viewBox="0 0 3184 780" role="img" aria-label="TΩRA"><g transform="translate(40,40)"><path d="M557.0 211.0Q556.0 152.0 545.0 113.0Q534.0 74.0 506.5 54.5Q479.0 35.0 427.0 36.0H342.0L341.0 581.0Q341.0 608.0 340.5 627.5Q340.0 647.0 338.0 660.0Q359.0 659.0 379.5 658.0Q400.0 657.0 421.0 656.0V700.0H186.0V667.0Q224.0 665.0 237.5 649.0Q251.0 633.0 252.5 605.5Q254.0 578.0 254.0 544.0L255.0 37.0L152.0 38.0Q89.0 38.0 63.0 80.0Q37.0 122.0 37.0 211.0H0.0L6.0 0.0H589.0L595.0 211.0Z" fill="#F2E9D7"/><path d="M849.840782122905 700.0 842.9385474860335 566.8854748603352H872.5195530726257Q872.5195530726257 609.2849162011173 902.1005586592179 622.5963687150838Q931.68156424581 635.9078212290503 993.8016759776536 635.9078212290503H1063.8100558659219V634.9217877094973Q998.731843575419 616.1871508379888 944.0069832402235 571.8156424581006Q889.2821229050279 527.4441340782123 856.7430167597765 463.8449720670391Q824.2039106145252 400.24581005586595 824.2039106145252 326.2932960893855Q824.2039106145252 268.1173184357542 844.4175977653631 209.4483240223464Q864.6312849162011 150.7793296089386 905.0586592178771 101.9706703910615Q945.4860335195531 53.162011173184396 1007.6061452513966 23.581005586592198Q1069.72625698324 -6.0 1152.5530726256984 -6.0Q1239.3240223463688 -6.0 1301.4441340782123 23.581005586592198Q1363.5642458100558 53.162011173184396 1402.5125698324023 101.9706703910615Q1441.4608938547485 150.7793296089386 1460.195530726257 209.4483240223464Q1478.9301675977654 268.1173184357542 1478.9301675977654 326.2932960893855Q1478.9301675977654 381.5111731843576 1457.7304469273743 430.81284916201116Q1436.5307262569831 480.1145251396648 1402.0195530726255 520.0488826815642Q1367.508379888268 559.9832402234637 1325.108938547486 589.5642458100558Q1282.7094972067039 619.1452513966481 1240.3100558659216 634.9217877094973V635.9078212290503H1323.13687150838Q1385.2569832402235 635.9078212290503 1414.8379888268155 622.5963687150838Q1444.4189944134077 609.2849162011173 1444.4189944134077 566.8854748603352H1473.013966480447L1467.0977653631285 700.0H1205.7988826815642V626.0474860335196Q1247.2122905027932 615.2011173184358 1286.6536312849162 578.7178770949721Q1326.0949720670392 542.2346368715084 1352.2248603351954 484.55167597765364Q1378.354748603352 426.86871508379886 1379.340782122905 354.8882681564246Q1381.3128491620112 293.7541899441341 1367.5083798882683 236.5642458100559Q1353.7039106145253 179.37430167597768 1324.6159217877096 133.5237430167598Q1295.5279329608938 87.67318435754191 1252.6354748603353 60.5572625698324Q1209.7430167597765 33.44134078212289 1151.5670391061453 33.44134078212289Q1095.36312849162 33.44134078212289 1052.4706703910615 58.58519553072625Q1009.5782122905027 83.72905027932961 979.9972067039106 126.12849162011173Q950.4162011173185 168.52793296089385 935.6256983240223 220.7877094972067Q920.8351955307262 273.04748603351953 920.8351955307262 328.26536312849163Q920.8351955307262 419.9664804469274 949.4301675977654 484.55167597765364Q978.0251396648044 549.13687150838 1021.4106145251396 584.6340782122905Q1064.7960893854747 620.1312849162011 1107.195530726257 626.0474860335196V700.0Z" fill="#F2E9D7"/><path d="M1743.0921787709497 700.0V667.0Q1781.0921787709497 665.0 1795.0921787709497 649.5Q1809.0921787709497 634.0 1810.5921787709497 606.5Q1812.0921787709497 579.0 1812.0921787709497 544.0V112.0Q1812.0921787709497 92.0 1813.0921787709497 73.5Q1814.0921787709497 55.0 1815.0921787709497 40.0Q1797.0921787709497 41.0 1779.0921787709497 42.0Q1761.0921787709497 43.0 1743.0921787709497 44.0V0.0Q1799.0921787709497 -1.0 1856.5921787709497 -2.0Q1914.0921787709497 -3.0 1972.0921787709497 -1.0Q2069.0921787709494 0.0 2128.5921787709494 21.5Q2188.0921787709494 43.0 2216.0921787709494 82.5Q2244.0921787709494 122.0 2244.0921787709494 178.0Q2245.0921787709494 217.0 2229.5921787709494 257.5Q2214.0921787709494 298.0 2173.5921787709494 330.0Q2133.0921787709494 362.0 2057.0921787709494 378.0Q2077.0921787709494 392.0 2092.0921787709494 414.0Q2107.0921787709494 436.0 2126.0921787709494 465.0L2194.0921787709494 572.0Q2211.0921787709494 599.0 2227.0921787709494 620.5Q2243.0921787709494 642.0 2264.0921787709494 654.5Q2285.0921787709494 667.0 2316.0921787709494 667.0V700.0H2190.0921787709494Q2161.0921787709494 674.0 2141.5921787709494 648.0Q2122.0921787709494 622.0 2101.0921787709494 589.0L2034.0921787709497 482.0Q2021.0921787709497 461.0 2004.5921787709497 433.5Q1988.0921787709497 406.0 1967.0921787709497 387.0Q1951.0921787709497 388.0 1933.5921787709497 388.0Q1916.0921787709497 388.0 1899.0921787709497 387.0V581.0Q1899.0921787709497 608.0 1898.5921787709497 627.5Q1898.0921787709497 647.0 1896.0921787709497 660.0Q1908.0921787709497 659.0 1920.0921787709497 658.5Q1932.0921787709497 658.0 1944.0921787709497 657.0Q1956.0921787709497 656.0 1968.0921787709497 656.0V700.0ZM1961.0921787709497 350.0Q2016.0921787709497 348.0 2057.5921787709494 332.0Q2099.0921787709494 316.0 2123.0921787709494 281.0Q2147.0921787709494 246.0 2147.0921787709494 189.0Q2147.0921787709494 151.0 2136.5921787709494 122.5Q2126.0921787709494 94.0 2104.0921787709494 75.0Q2082.0921787709494 56.0 2048.0921787709494 46.5Q2014.0921787709497 37.0 1968.0921787709497 37.0Q1931.0921787709497 37.0 1916.5921787709497 52.0Q1902.0921787709497 67.0 1900.5921787709497 93.5Q1899.0921787709497 120.0 1899.0921787709497 156.0V348.0Q1915.0921787709497 349.0 1929.5921787709497 350.0Q1944.0921787709497 351.0 1961.0921787709497 350.0Z" fill="#F2E9D7"/><path d="M2460.0921787709494 700.0V667.0Q2490.0921787709494 667.0 2506.0921787709494 651.0Q2522.0921787709494 635.0 2532.5921787709494 607.0Q2543.0921787709494 579.0 2557.0921787709494 542.0L2763.0921787709494 -19.0H2787.0921787709494L3010.0921787709494 550.0Q3018.0921787709494 571.0 3028.0921787709494 604.0Q3038.0921787709494 637.0 3036.0921787709494 660.0Q3053.0921787709494 659.0 3070.0921787709494 658.0Q3087.0921787709494 657.0 3104.0921787709494 656.0V700.0H2875.0921787709494V667.0Q2913.0921787709494 666.0 2925.0921787709494 650.0Q2937.0921787709494 634.0 2934.0921787709494 612.0Q2931.0921787709494 590.0 2924.0921787709494 572.0L2889.0921787709494 478.0L2629.0921787709494 484.0L2594.0921787709494 591.0Q2587.0921787709494 615.0 2581.5921787709494 629.0Q2576.0921787709494 643.0 2569.0921787709494 660.0Q2589.0921787709494 659.0 2608.5921787709494 658.0Q2628.0921787709494 657.0 2647.0921787709494 656.0V700.0ZM2644.0921787709494 441.0H2875.0921787709494L2804.0921787709494 250.0Q2793.0921787709494 219.0 2781.5921787709494 188.5Q2770.0921787709494 158.0 2759.0921787709494 127.0H2757.0921787709494Q2747.0921787709494 155.0 2736.5921787709494 183.0Q2726.0921787709494 211.0 2715.0921787709494 240.0Z" fill="#F2E9D7"/></g></svg>